<?xml version="1.0" encoding="utf-8"?>
<!-- Generator: Adobe Illustrator 26.5.0, SVG Export Plug-In . SVG Version: 6.00 Build 0)  -->
<svg version="1.1" id="Layer_1" xmlns="http://www.w3.org/2000/svg" xmlns:xlink="http://www.w3.org/1999/xlink" x="0px" y="0px"
	 viewBox="0 0 500 500" style="enable-background:new 0 0 500 500;" xml:space="preserve">
<g>
	<path d="M240.56,172.12c-42.02,0-84.05,0.01-126.07-0.01c-9.13,0-15.23-4.53-17.11-12.54c-2.15-9.16,4.65-18.44,14.05-19.17
		c1.12-0.09,2.24-0.09,3.36-0.09c83.92,0,167.84-0.01,251.77,0c9.47,0,15.6,4.42,17.48,12.53c2.14,9.17-4.65,18.44-14.05,19.17
		c-1.61,0.12-3.24,0.1-4.86,0.1C323.61,172.13,282.08,172.13,240.56,172.12z"/>
	<path d="M240.7,331.94c42.02,0,84.05-0.01,126.07,0.01c9.12,0,15.08,4.23,17.12,12.01c2.49,9.48-4.33,19.02-14.11,19.71
		c-1.12,0.08-2.24,0.08-3.36,0.08c-83.8,0-167.59,0.01-251.39,0c-9.67,0-15.88-4.5-17.71-12.74c-1.99-9.02,4.73-18.18,13.95-18.95
		c1.61-0.13,3.24-0.11,4.86-0.11C157.65,331.94,199.18,331.94,240.7,331.94z"/>
	<path d="M192.77,267.94c-26.31,0-52.61,0.03-78.92-0.02c-8.56-0.02-14.57-4.66-16.44-12.42c-2.2-9.15,4.53-18.49,13.9-19.27
		c1.12-0.09,2.24-0.1,3.36-0.1c52.11,0,104.23-0.01,156.34,0c9.4,0,15.82,4.91,17.38,13.14c1.83,9.66-5.62,18.53-15.96,18.62
		c-16.21,0.14-32.41,0.04-48.62,0.04C213.46,267.94,203.11,267.94,192.77,267.94z"/>
</g>
</svg>
