<?xml version="1.0" encoding="utf-8"?>
<!-- Generator: Adobe Illustrator 26.5.0, SVG Export Plug-In . SVG Version: 6.00 Build 0)  -->
<svg version="1.1" id="Layer_1" xmlns="http://www.w3.org/2000/svg" xmlns:xlink="http://www.w3.org/1999/xlink" x="0px" y="0px"
	 viewBox="0 0 500 500" style="enable-background:new 0 0 500 500;" xml:space="preserve">
<g>
	<path d="M59.81,250.55c0-63.28-0.03-126.57,0.01-189.85c0.01-21.88,11.27-38.85,30.44-45.15c5.37-1.77,11.28-2.65,16.94-2.67
		c65.66-0.18,131.32-0.09,196.98-0.17c5.1-0.01,9.05,1.63,12.66,5.25c39.88,40.01,79.83,79.97,119.85,119.85
		c3.63,3.61,5.31,7.58,5.31,12.65c-0.05,97.22,0.04,194.43-0.09,291.65c-0.04,27.76-19.49,46.9-47.32,46.93
		c-95.69,0.07-191.38,0.06-287.07,0.01c-28.35-0.02-47.65-19.28-47.69-47.62C59.76,377.79,59.81,314.17,59.81,250.55z M295.71,35.33
		c-2.54,0-4.53,0-6.52,0c-60.05,0-120.1,0-180.14,0c-17.92,0-26.51,8.56-26.51,26.47c-0.01,126.03-0.01,252.07,0,378.1
		c0,17.96,8.58,26.57,26.42,26.57c94.65,0,189.3,0,283.96,0c17.83,0,26.42-8.64,26.42-26.59c0.01-91.43,0-182.86,0-274.29
		c0-1.98,0-3.95,0-6.44c-2.45,0-4.28,0-6.1,0c-24.77,0-49.53,0.01-74.3,0c-26.77-0.02-43.22-16.39-43.23-43.03
		c-0.01-24.94,0-49.87,0-74.81C295.71,39.51,295.71,37.69,295.71,35.33z M318.19,52.93c0,1.33,0,2.95,0,4.57
		c0,19.68-0.01,39.35,0,59.03c0.01,13.44,6.53,19.99,19.95,20.01c19.68,0.03,39.35,0.01,59.03,0c1.61,0,3.22-0.16,4.44-0.22
		C373.8,108.51,346.06,80.79,318.19,52.93z"/>
	<path d="M240.24,415.96c-34.1,0-68.21,0-102.31,0c-1.87,0-3.74,0.06-5.6-0.1c-5.99-0.52-10.44-5.31-10.45-11.13
		c-0.01-5.53,4.27-10.39,9.93-11.16c1.34-0.18,2.71-0.12,4.07-0.12c69.56,0,139.13-0.01,208.69,0c1.53,0,3.07-0.07,4.57,0.16
		c5.67,0.87,9.78,5.76,9.65,11.36c-0.13,5.65-4.39,10.28-10.13,10.87c-1.85,0.19-3.73,0.13-5.59,0.13
		C308.78,415.96,274.51,415.96,240.24,415.96z"/>
	<path d="M282.78,255.97c0,2.71,0.26,5.45-0.05,8.12c-0.69,5.81-5.45,9.97-11.02,9.97c-5.34,0-10.14-3.89-10.97-9.47
		c-0.55-3.66-0.35-7.44-0.53-11.16c-1.05-21.35-18.55-38.64-39.94-39.19c-9.83-0.26-19.67-0.26-29.5,0.01
		c-21.14,0.57-38.63,17.74-39.78,38.81c-0.18,3.38,0,6.8-0.32,10.16c-0.62,6.42-5.45,10.92-11.34,10.84
		c-5.91-0.08-10.47-4.63-11.11-11.1c-3.76-37.96,25.79-71.02,63.95-71.3c12.19-0.09,24.61-0.97,36.55,0.9
		C260.75,197.56,282.14,223.28,282.78,255.97z"/>
	<path d="M251.15,140.89c-0.01,25.21-20.42,45.77-45.42,45.74c-25.35-0.03-45.75-20.55-45.73-46c0.02-25.1,20.56-45.53,45.71-45.45
		C230.86,95.26,251.16,115.68,251.15,140.89z M228.59,141.14c0.09-12.9-10.16-23.32-23.02-23.41c-12.48-0.09-22.95,10.34-22.99,22.9
		c-0.05,12.98,10.25,23.44,23.01,23.38C218.28,163.96,228.51,153.79,228.59,141.14z"/>
	<path d="M201.7,356.66c-22.21,0-44.43,0.04-66.64-0.02c-9.36-0.03-15.02-6.72-12.56-14.62c1.56-5,5.29-7.77,11.15-7.84
		c9.16-0.12,18.31-0.04,27.47-0.04c35.27,0,70.54-0.01,105.81,0.03c2.35,0,4.82,0.01,7.03,0.68c4.73,1.43,7.88,6.7,7.35,11.55
		c-0.59,5.38-4.74,9.59-10.43,10.13c-3.36,0.32-6.78,0.14-10.17,0.14C241.04,356.66,221.37,356.66,201.7,356.66z"/>
</g>
</svg>
