<?xml version="1.0" encoding="utf-8"?>
<!-- Generator: Adobe Illustrator 26.5.0, SVG Export Plug-In . SVG Version: 6.00 Build 0)  -->
<svg version="1.1" id="Layer_1" xmlns="http://www.w3.org/2000/svg" xmlns:xlink="http://www.w3.org/1999/xlink" x="0px" y="0px"
	 viewBox="0 0 500 500" style="enable-background:new 0 0 500 500;" xml:space="preserve">
<g>
	<g>
		<path d="M94.01,105.34h68.26v137.22c0,14.69-3.59,25.99-10.68,33.59c-7.03,7.54-17.02,11.21-30.55,11.21
			c-13.38,0-23.3-3.69-30.32-11.29c-7.1-7.68-10.7-18.95-10.7-33.51v-8.34H5.59v8.34c0,35.59,10.11,63.82,30.04,83.9
			c19.95,20.1,48.33,30.29,84.37,30.29c35.44,0,63.67-10.14,83.89-30.13c20.25-20.02,30.51-48.3,30.51-84.06V37.63H94.01V105.34z"/>
		<polygon points="345.29,284.84 345.29,37.63 273.17,37.63 273.17,352.55 494.41,352.55 494.41,284.84 		"/>
	</g>
	<g>
		<path d="M19.9,410.95v16.34h28.63v11.49H19.9v22.53H5.59v-61.84h46.74v11.49H19.9z"/>
		<path d="M78.43,458.22c-5.15-2.77-9.19-6.58-12.1-11.44c-2.92-4.86-4.37-10.32-4.37-16.39s1.46-11.53,4.37-16.39
			c2.91-4.86,6.95-8.67,12.1-11.44c5.15-2.77,10.94-4.15,17.36-4.15c6.42,0,12.19,1.38,17.32,4.15c5.12,2.77,9.16,6.58,12.1,11.44
			c2.94,4.86,4.42,10.32,4.42,16.39s-1.47,11.53-4.42,16.39c-2.95,4.86-6.98,8.67-12.1,11.44c-5.12,2.77-10.9,4.15-17.32,4.15
			C89.37,462.37,83.58,460.99,78.43,458.22z M105.68,447.66c2.94-1.68,5.26-4.02,6.93-7.02c1.68-3,2.52-6.42,2.52-10.25
			s-0.84-7.25-2.52-10.25c-1.68-3-3.99-5.35-6.93-7.02c-2.95-1.68-6.24-2.52-9.9-2.52c-3.65,0-6.95,0.84-9.9,2.52
			c-2.95,1.68-5.26,4.02-6.93,7.02c-1.68,3-2.52,6.42-2.52,10.25s0.84,7.24,2.52,10.25c1.68,3,3.99,5.34,6.93,7.02
			c2.94,1.68,6.24,2.52,9.9,2.52C99.44,450.18,102.74,449.34,105.68,447.66z"/>
		<path d="M201.54,399.47v61.84h-11.75l-30.83-37.55v37.55h-14.14v-61.84h11.84l30.74,37.55v-37.55H201.54z"/>
		<path d="M233.43,411.13h-19.79v-11.66h53.89v11.66h-19.79v50.18h-14.31V411.13z"/>
		<path d="M279.64,399.47h14.31v61.84h-14.31V399.47z"/>
		<path d="M313.03,399.47h14.31v50.18h31.01v11.66h-45.32V399.47z"/>
		<path d="M370.81,399.47h14.31v50.18h31.01v11.66h-45.32V399.47z"/>
		<path d="M469.85,448.06h-28.71l-5.48,13.25h-14.67l27.56-61.84h14.14l27.65,61.84h-15.02L469.85,448.06z M465.34,437.19
			l-9.81-23.68l-9.81,23.68H465.34z"/>
	</g>
</g>
</svg>
